<svg xmlns="http://www.w3.org/2000/svg" viewBox="0 0 152.66 46.07"><defs><style>.a{fill:#4d46dd;}</style></defs><path class="a" d="M37.25,77l-6.68-5.76c-.67-.51-.88-.67-2.06-.31a8.88,8.88,0,0,1-4.06,1,18.36,18.36,0,1,1,14-6.53c-.61.77-.72,1.44,0,2.06l4,3.6c1.7,1.44,2.83,4.16.77,6.17C41.47,78.93,39.36,78.78,37.25,77ZM34.47,53.54a10.08,10.08,0,1,0-20.15,0,10.08,10.08,0,0,0,20.15,0Z" transform="translate(-5.94 -32.36)"/><path class="a" d="M46.86,57.85v-11a4,4,0,1,1,8,0v11a5.94,5.94,0,1,0,11.87,0v-11a4,4,0,1,1,8,0v11a13.91,13.91,0,1,1-27.81,0Z" transform="translate(-5.94 -32.36)"/><path class="a" d="M78.37,57.19a14.47,14.47,0,0,1,28.94,0v4.26c0,5,2.42,4.32,2.42,7.35,0,4.07-5.45,5.87-8.69,1.65-.62-1.18-1.13-1.08-1.8-1-1.8,1-2.62,2.42-7.61,2.42C85.1,71.89,78.37,64.9,78.37,57.19Zm20.82,0a6.35,6.35,0,0,0-12.7,0,6.35,6.35,0,1,0,12.7,0Z" transform="translate(-5.94 -32.36)"/><path class="a" d="M113.3,67.78V46.85a3.81,3.81,0,0,1,3.8-4.11c2.16,0,3.5,1.34,3.5,2.42V46c0,.56.31.41.93-.41a7.85,7.85,0,0,1,5.75-2.83,3.86,3.86,0,0,1,3.91,2.78,3.53,3.53,0,0,1-2.78,4.42c-4.52,1-7.14,3.75-7.14,7.81v10a4,4,0,1,1-8,0Z" transform="translate(-5.94 -32.36)"/><path class="a" d="M134.24,67.83V45.16c0-4.89,2-9.67,6.73-12a8.87,8.87,0,0,1,3-.77,3.49,3.49,0,0,1,3.49,2.16c1,2.62-1.13,4.72-3.29,6.11-1.54.93-1.95,2.42-1.95,4.53v5.65c0,1,.67,1.13,1.23.52l5.66-6.48a4.59,4.59,0,0,1,3.34-2.11,3.51,3.51,0,0,1,2.36.77,3.27,3.27,0,0,1,.77,4.94L151,54a1.68,1.68,0,0,0-.11,2.57l6.74,8.84c1.64,2.21,1.18,4.63-.52,5.76a4.64,4.64,0,0,1-2.46.77,5.36,5.36,0,0,1-3.6-2.16l-5.86-7.61c-.52-.56-1-.51-1.49,0l-1.08,1.08a1.69,1.69,0,0,0-.36,1.13v3.4a4,4,0,1,1-8,0Z" transform="translate(-5.94 -32.36)"/></svg>