<svg xmlns="http://www.w3.org/2000/svg" viewBox="0 0 492.7 492.7"><defs><style>.cls-1{fill:#4d46dd;}.cls-2{fill:#fff;}</style></defs><g id="Layer_2" data-name="Layer 2"><rect class="cls-1" width="492.7" height="492.7" rx="68.05"/><path class="cls-2" d="M574.15,432.16c-79.95,0-145,65-145,145s65,145,145,145a144.15,144.15,0,0,0,52.2-9.73,31.74,31.74,0,0,1,9-26.95l4.88-4.88a31.8,31.8,0,0,1,39.62-4.3,144.43,144.43,0,0,0,39.28-99.12C719.13,497.2,654.09,432.16,574.15,432.16Zm0,237.09a92.1,92.1,0,1,1,92.1-92.1A92.2,92.2,0,0,1,574.15,669.25Z" transform="translate(-331.94 -353.05)"/><path class="cls-2" d="M574.15,722.13c-79.95,0-145-65-145-145s65-145,145-145,145,65,145,145a144.43,144.43,0,0,1-39.28,99.12,31,31,0,0,1,5.35,4.3l3.11,3.11a155.65,155.65,0,0,0,42.06-106.53c0-86.15-70.08-156.23-156.22-156.23S417.92,491,417.92,577.15,488,733.37,574.15,733.37a155.37,155.37,0,0,0,55.73-10.28,31.6,31.6,0,0,1-3.53-10.69A144.15,144.15,0,0,1,574.15,722.13Z" transform="translate(-331.94 -353.05)"/><path class="cls-2" d="M574.15,485.05a92.1,92.1,0,1,0,92.1,92.1A92.2,92.2,0,0,0,574.15,485.05Zm0,173A80.86,80.86,0,1,1,655,577.15,80.94,80.94,0,0,1,574.15,658Z" transform="translate(-331.94 -353.05)"/><path class="cls-2" d="M729.34,724.71l-41-41a156.83,156.83,0,0,1-58.43,39.41,31.34,31.34,0,0,0,5.47,7.33l44.14,44.14a31.8,31.8,0,0,0,45,0l4.88-4.88A31.8,31.8,0,0,0,729.34,724.71Z" transform="translate(-331.94 -353.05)"/><path class="cls-2" d="M640.23,680.57l-4.88,4.88a31.74,31.74,0,0,0-9,26.95,145.46,145.46,0,0,0,53.5-36.13A31.8,31.8,0,0,0,640.23,680.57Z" transform="translate(-331.94 -353.05)"/><path class="cls-2" d="M688.31,683.68l-3.11-3.11a31,31,0,0,0-5.35-4.3,145.46,145.46,0,0,1-53.5,36.13,31.6,31.6,0,0,0,3.53,10.69A156.83,156.83,0,0,0,688.31,683.68Z" transform="translate(-331.94 -353.05)"/></g></svg>